<?xml version="1.0" ?><!DOCTYPE svg  PUBLIC '-//W3C//DTD SVG 1.1//EN'  'http://www.w3.org/Graphics/SVG/1.1/DTD/svg11.dtd'><svg height="128px" id="Layer_1" style="enable-background:new 0 0 128 128;" version="1.1" viewBox="0 0 128 128" width="128px" xml:space="preserve" xmlns="http://www.w3.org/2000/svg" xmlns:xlink="http://www.w3.org/1999/xlink"><style type="text/css">
<![CDATA[
	.st0{fill-rule:evenodd;clip-rule:evenodd;}
]]>
</style><g><rect height="62.915" width="20.914" x="16.452" y="47.708" fill="#ffffff"/><path d="M27.048,17.377c-7.155,0-11.838,4.695-11.838,10.868c0,6.041,4.545,10.877,11.562,10.877h0.141   c7.293,0,11.832-4.836,11.832-10.877C38.607,22.072,34.206,17.377,27.048,17.377z" fill="#ffffff"/><path d="M88.706,46.229c-11.11,0-16.075,6.116-18.853,10.396v0.204h-0.135c0.039-0.064,0.096-0.138,0.135-0.204v-8.917H48.937   c0.279,5.904,0,62.915,0,62.915h20.917V75.486c0-1.884,0.141-3.754,0.693-5.1c1.515-3.761,4.954-7.65,10.734-7.65   c7.569,0,10.597,5.772,10.597,14.227v33.661h20.914V74.545C112.791,55.22,102.473,46.229,88.706,46.229z" fill="#ffffff"/></g></svg>