<?xml version="1.0" ?><svg enable-background="new 0 0 515.91 728.5" height="512" id="Layer_1" version="1.1" viewBox="0 0 512.00003 512" width="512" xml:space="preserve" xmlns="http://www.w3.org/2000/svg" xmlns:cc="http://creativecommons.org/ns#" xmlns:dc="http://purl.org/dc/elements/1.1/" xmlns:inkscape="http://www.inkscape.org/namespaces/inkscape" xmlns:rdf="http://www.w3.org/1999/02/22-rdf-syntax-ns#" xmlns:sodipodi="http://sodipodi.sourceforge.net/DTD/sodipodi-0.dtd" xmlns:svg="http://www.w3.org/2000/svg"><defs id="defs7"/><g id="g4518" transform="translate(-866.20581,-605.4602)"><g id="g4934" style="fill:#282828;fill-opacity:1"><path d="m 866.20585,605.46021 0,511.99999 511.99995,0 0,-511.99999 -511.99995,0 z" id="path4232" style="fill:#282828;fill-opacity:1;fill-rule:nonzero;stroke:none"/><path d="m 1207.1614,730.42117 c 17.6779,10.2085 40.277,4.1537 50.4789,-13.5199 10.2076,-17.6795 4.157,-40.277 -13.5225,-50.4839 -17.677,-10.2043 -40.2736,-4.1503 -50.4813,13.53 -10.2035,17.6728 -4.1504,40.2695 13.5249,50.4738 z m -75.6494,239.0126 c -16.2541,0 -31.6575,-3.6134 -45.4836,-10.0458 l -25.6841,46.02563 c 21.454,10.623 45.6061,16.625 71.1677,16.625 14.8648,0 29.2388,-2.0597 42.8979,-5.8426 2.4171,-14.8455 11.2321,-28.52813 25.2856,-36.64343 14.0292,-8.0994 30.2656,-8.9023 44.3191,-3.5908 27.3318,-26.8746 45.1162,-63.4392 47.7052,-104.1583 l -52.6794,-0.7635 c -4.8475,55.1561 -51.1198,98.3972 -107.5284,98.3972 z m 0,-215.9486 c 56.4086,0 102.6809,43.2494 107.5284,98.3996 l 52.6794,-0.7719 c -2.5924,-40.7157 -20.3776,-77.2795 -47.7127,-104.1532 -14.0518,5.3081 -30.2858,4.5036 -44.3166,-3.5975 -14.0519,-8.1119 -22.8652,-21.7929 -25.2822,-36.6401 -13.6575,-3.7787 -28.0315,-5.8409 -42.8963,-5.8409 -25.5616,0 -49.712,6.0003 -71.1643,16.6275 l 25.6824,46.0197 c 13.8244,-6.4323 29.2278,-10.0458 45.4819,-10.0458 z m -107.9731,107.9747 c 0,-36.5302 18.1544,-68.7951 45.9115,-88.3329 l -27.0222,-45.2688 c -32.3463,21.6134 -56.41024,54.6509 -66.4048,93.349 11.67676,9.5164 19.13676,24.0087 19.13676,40.2561 0,16.2448 -7.4626,30.7371 -19.13836,40.2518 9.99286,38.7006 34.0568,71.7373 66.4047,93.3507 l 27.0239,-45.2705 c -27.7571,-19.5353 -45.9115,-51.8002 -45.9115,-88.3354 z m 183.6276,131.0362 c -17.6804,10.20773 -23.7335,32.80353 -13.5283,50.47633 10.2076,17.6795 32.8026,23.7368 50.483,13.5291 17.6744,-10.2051 23.7301,-32.8026 13.5224,-50.4805 -10.2035,-17.67113 -32.8027,-23.72843 -50.4771,-13.52493 z M 943.25097,824.50177 c -20.41788,0 -36.9631,16.5427 -36.9631,36.9615 0,20.4128 16.54522,36.958 36.9631,36.958 20.41113,0 36.95799,-16.5452 36.95799,-36.958 0,-20.4188 -16.54686,-36.9615 -36.95799,-36.9615" id="circle-of-friends" style="fill:#282828;fill-opacity:1;fill-rule:nonzero;stroke:none"/></g><path d="m 1139.0571,1059.9912 c 5.8293,-1.8195 10.5521,-4.3988 15.8975,-8.6813 11.9826,-9.6009 20.2845,-20.8092 51.2784,-69.22871 23.3016,-36.4021 32.046,-52.6725 38.5484,-71.7246 2.9939,-8.7725 6.4275,-23.8625 6.4278,-28.2493 0,-1.7588 -0.1873,-2.1325 -0.9922,-1.9788 -1.4384,0.2733 -4.4511,5.0609 -5.5384,8.8014 -1.1654,4.0086 -5.4802,14.862 -9.6955,24.3875 -5.4211,12.251 -14.9033,28.3032 -29.3988,49.7695 -27.6396,40.93181 -26.8196,39.79501 -28.3039,39.22581 -0.7847,-0.3011 -0.7914,-0.5926 -0.06,-2.66381 1.0116,-2.8673 5.5114,-10.5557 11.4436,-19.5522 2.4674,-3.7421 6.1014,-9.8452 8.0755,-13.5619 1.9741,-3.7172 4.8316,-8.6614 6.35,-10.9877 1.921,-2.9427 2.7608,-4.8104 2.7608,-6.1406 0,-1.0517 -0.2778,-1.9119 -0.6173,-1.9119 -0.3395,0 -1.9298,1.1482 -3.5339,2.5515 -2.6427,2.3116 -4.9681,3.4377 -4.0575,1.9641 0.1997,-0.3232 4.4608,-5.2345 9.4691,-10.9147 14.3085,-16.2267 18.9439,-23.0187 21.7539,-31.8729 1.6007,-5.0434 2.5299,-13.8913 1.4589,-13.8913 -1.3174,0 -5.6978,6.5567 -13.1275,19.6497 -4.2067,7.4128 -8.5659,14.6358 -9.6871,16.0504 -11.4316,14.4243 -32.7674,24.4556 -56.09,26.372 -2.3388,0.1922 -7.6776,1.0019 -11.8638,1.7985 -7.4697,1.4226 -7.8076,1.4368 -18.1438,0.7841 -12.0977,-0.7643 -17.8417,-1.7633 -19.5925,-3.4081 -1.0379,-0.9753 -1.9827,-1.1454 -6.3644,-1.1454 -6.2736,0 -12.1696,-1.0727 -20.6598,-3.7586 -14.7292,-4.6601 -26.7995,-10.8358 -35.8704,-18.353 -6.9656,-5.7725 -9.4646,-9.3554 -17.5791,-25.2057 -5.4667,-10.6787 -8.4528,-15.6189 -9.4404,-15.6189 -1.6031,0 2.245,12.6581 5.9937,19.7172 5.8774,11.066 11.6987,18.294 26.4947,32.8958 21.1159,20.8381 25.4452,23.9316 40.5301,28.9597 12.7214,4.2406 19.6514,5.1761 38.3477,5.1767 11.8174,0 11.8261,0 13.5266,1.4328 1.3722,1.1544 2.0741,1.3619 3.6256,1.0704 1.2448,-0.2336 1.9239,-0.1394 1.9239,0.266 0,0.3447 -1.5683,2.7334 -3.4852,5.3082 -4.8283,6.4841 -5.844,8.8847 -5.8195,13.75241 0.016,3.2528 0.4231,4.9923 2.2527,9.6389 2.2262,5.6534 2.2324,5.692 2.1737,13.3243 -0.055,7.1685 -0.2237,8.2843 -2.6529,17.5768 -3.701,14.1578 -4.1478,19.8447 -1.5591,19.8447 0.6016,0 3.212,-0.6611 5.8009,-1.469 z m -31.136,-3.6339 c -0.067,-2.027 -1.1693,-7.8954 -2.4488,-13.0408 -3.798,-15.2726 -4.5948,-21.7437 -3.345,-27.1652 0.3171,-1.3756 1.8417,-5.2238 3.3881,-8.5514 2.5347,-5.4545 2.8092,-6.4365 2.788,-9.97291 -0.027,-4.5098 -1.1852,-8.163 -3.7177,-11.7282 -2.0924,-2.945 -3.9904,-3.9214 -11.3392,-5.8304 -3.0466,-0.7915 -8.4904,-2.6864 -12.0975,-4.2111 -3.607,-1.5241 -8.4208,-3.3532 -10.6974,-4.0648 -4.9799,-1.5552 -6.2209,-1.1566 -5.803,1.8632 0.2807,2.0293 0.2684,6.9921 -0.036,14.3789 -0.1594,3.8737 0.079,5.361 1.6354,10.1832 1.8375,5.69551 2.2082,8.45841 1.3225,9.85551 -1.3148,2.0746 -4.5735,-2.4681 -8.2736,-11.53381 -2.8008,-6.8617 -11.3982,-23.4871 -17.8909,-34.5962 -5.1322,-8.781 -14.3632,-23.4911 -26.8572,-42.7983 -7.0374,-10.875 -11.2209,-18.8032 -14.86458,-28.1711 -4.4571,-11.4589 -9.0176,-18.8894 -11.5935,-18.8894 -2.043,0 -1.8422,2.3706 0.9172,10.8285 9.2321,28.2963 23.04248,55.6328 51.24578,101.4362 11.1716,18.14321 14.8701,23.61351 19.4139,28.71311 1.906,2.1387 7.4334,9.8849 12.283,17.2133 7.2001,10.8801 9.8111,14.3234 14.2337,18.7709 2.9788,2.9954 6.6297,6.1462 8.113,7.0018 3.74,2.1568 10.0058,4.3091 12.0448,4.1379 l 1.701,-0.1434 -0.1223,-3.6855 z m 15.3845,-33.2972 c -0.05,-2.5532 -1.188,-4.5337 -2.0877,-3.6339 -0.3083,0.3079 -0.3667,1.7838 -0.1367,3.4564 0.3153,2.2923 0.602,2.8775 1.3363,2.7284 0.698,-0.1418 0.923,-0.7876 0.8881,-2.5509 z m 13.3673,-68.33631 c 0,-0.3895 -0.5069,-1.4742 -1.1219,-2.4097 -1.5216,-2.3145 -11.7382,-13.2977 -14.1365,-15.1972 -1.8559,-1.4702 -1.9997,-1.4957 -3.402,-0.6106 -1.6959,1.0705 -1.4559,0.8023 -8.775,9.8141 -3.8345,4.7219 -5.4258,7.0919 -5.0282,7.4894 0.5805,0.5806 14.0072,1.371 26.0886,1.536 4.7731,0.065 6.3778,-0.091 6.375,-0.622 z m 32.6279,-21.6506 c 16.2086,-3.9265 24.8385,-9.2653 34.0525,-21.065 4.3151,-5.5265 8.7334,-12.5668 8.7334,-13.9168 0,-1.0665 -0.5737,-1.1697 -12.1874,-2.2028 -11.6929,-1.0404 -17.0128,-2.8157 -17.0128,-5.6784 0,-1.371 0.079,-1.396 3.969,-1.223 2.1829,0.097 7.0723,0.5437 10.8654,0.9922 9.1434,1.0818 12.6158,1.0319 22.8096,-0.3283 9.1884,-1.2258 12.7192,-2.3213 17.2944,-5.366 4.3287,-2.8809 13.9515,-11.6398 16.5958,-15.1064 2.9422,-3.8567 3.7257,-5.4403 5.2947,-10.702 1.1367,-3.8113 1.2971,-5.8485 1.5481,-19.6542 l 0.2801,-15.4019 -3.3245,-0.3691 c -1.8284,-0.2029 -6.3544,-0.8629 -10.0577,-1.4662 -8.1832,-1.333 -10.0305,-1.3534 -13.6785,-0.1486 -2.3921,0.7904 -7.0866,1.0042 -30.0506,1.3688 -14.9686,0.2375 -29.3844,0.6083 -32.0351,0.8244 -6.6872,0.5437 -8.998,-0.182 -13.1314,-4.1249 -1.8213,-1.7367 -3.3114,-3.4587 -3.3114,-3.8255 0,-1.4816 3.5145,-5.7873 6.0688,-7.4344 6.8123,-4.3942 16.6791,-10.0052 19.4836,-11.0808 7.6147,-2.92 20.9826,-3.6236 30.5799,-1.6097 9.6637,2.0276 18.6392,7.181 22.963,13.1843 2.7861,3.8681 3.2931,4.1924 8.1579,5.2158 2.14,0.4502 4.752,1.3166 5.8045,1.9261 2.2798,1.3194 9.1294,3.4734 11.0453,3.4734 1.3464,0 1.3577,-0.051 1.3577,-5.975 0,-6.7965 -0.8576,-28.9274 -1.7239,-44.4874 -1.762,-31.6479 -6.5585,-55.8817 -13.9454,-70.4591 -7.6838,-15.1631 -24.5657,-24.1443 -57.7563,-30.7259 -24.914,-4.9403 -49.6679,-6.9962 -72.2917,-6.0034 -54.1886,2.3769 -89.3127,10.5523 -105.9454,24.6586 -8.8562,7.5115 -14.12268,18.692 -18.44318,39.1548 -5.6414,26.719 -7.6357,48.1167 -8.1118,87.0335 l -0.3294,26.9321 1.8352,5.3865 c 4.5087,13.2342 12.5032,26.8477 19.64938,33.4611 3.9362,3.6423 10.1973,7.2422 13.7783,7.9209 4.4054,0.8357 17.8108,0.6843 26.9763,-0.3039 4.3659,-0.4712 10.5532,-1.0127 13.7496,-1.2038 5.6531,-0.3379 5.8117,-0.3147 5.8117,0.8551 0,1.7361 -1.8483,2.6625 -7.9379,3.9797 -12.3628,2.6739 -15.0228,3.0345 -21.9502,2.9767 -8.3111,-0.07 -8.5105,0.099 -5.8114,4.896 4.6496,8.2645 10.6495,15.1217 17.0115,19.4422 7.2814,4.9441 24.5982,12.3423 31.8446,13.6044 4.7854,0.8335 8.6139,-0.1695 12.4613,-3.2636 3.8742,-3.1162 5.2293,-5.0763 5.1625,-7.4673 -0.047,-1.6891 -0.5476,-2.4902 -2.919,-4.672 -1.574,-1.4481 -3.0127,-3.2342 -3.1969,-3.969 -0.1843,-0.7348 0.058,-3.7597 0.5388,-6.7223 1.4906,-9.1886 0.8323,-15.5548 -1.5712,-15.1937 -0.616,0.093 -1.4013,0.6787 -1.745,1.3024 -0.3437,0.6237 -1.4454,2.3048 -2.4483,3.7354 -2.8542,4.0715 -4.13,7.5705 -4.13,11.3262 0,3.1049 -0.1028,3.3702 -1.4341,3.7042 -1.0444,0.2619 -2.05,-0.067 -3.701,-1.2111 -4.5615,-3.161 -7.3422,-8.726 -7.3356,-14.6806 0.01,-6.356 2.4354,-10.0108 9.0673,-13.6458 4.7638,-2.6116 8.0307,-6.0385 9.3549,-9.813 1.1463,-3.2676 4.0229,-19.4337 5.165,-29.0272 0.5235,-4.3965 0.8739,-12.907 0.9231,-22.4155 l 0.079,-15.3281 -4.5001,-8.7045 c -4.0291,-7.7933 -4.8803,-9.0378 -8.1304,-11.8875 -1.9965,-1.7509 -6.5892,-5.8197 -10.2058,-9.0419 -11.2656,-10.038 -16.359,-13.1162 -24.6319,-14.8875 -8.0067,-1.714 -11.711,-3.5125 -11.711,-5.6864 0,-2.0905 3.4449,-2.9586 10.2058,-2.5724 13.4752,0.7694 21.526,5.0604 40.397,21.5315 13.5794,11.8524 16.6998,15.6762 20.6734,25.3338 0.9623,2.3389 2.2736,6.4212 2.9142,9.0719 2.2774,9.4252 2.4571,13.9373 1.815,45.5659 -0.3325,16.3764 -0.7198,30.1101 -0.8607,30.5184 -1.0305,2.9903 -4.2904,27.2922 -4.3191,32.1995 -0.032,5.5543 0.035,5.8888 1.4807,7.3981 3.7309,3.8947 12.9817,6.233 20.2163,5.1103 4.4708,-0.6934 6.5023,-1.5819 9.8904,-4.3255 1.2864,-1.0416 3.0372,-2.2119 3.8908,-2.6008 1.7331,-0.7899 0.7745,-1.6035 8.8946,7.554 6.0556,6.83 10.4572,7.9396 21.1855,5.34 z m -6.4878,-33.6312 c -0.8519,-4.0087 -3.5052,-9.6627 -5.3464,-11.3926 -0.7543,-0.7088 -2.6933,-1.6369 -4.3088,-2.0633 -1.6156,-0.4264 -3.3056,-1.0807 -3.7558,-1.4544 -2.0437,-1.6958 0.099,-6.1048 2.6549,-5.4635 2.3363,0.5863 8.0916,4.6119 9.952,6.961 4.467,5.6404 5.9985,12.0729 3.5986,15.1137 -0.6768,0.8579 -1.4266,1.5593 -1.6661,1.5593 -0.2396,0 -0.7474,-1.4668 -1.1284,-3.2602 z m -165.61668,-67.3753 c 0,-0.8045 0.6749,-3.1496 1.4997,-5.2112 1.49388,-3.7342 1.49578,-3.7586 0.4922,-6.3339 -0.554,-1.4214 -1.1278,-3.2693 -1.275,-4.1062 -0.2887,-1.642 -0.7913,-1.3931 6.78718,-3.356 1.4137,-0.3657 2.6388,-1.2479 3.6854,-2.6541 2.74,-3.6798 7.1511,-7.7655 10.3754,-9.6105 8.0525,-4.6074 19.5674,-6.707 31.7324,-5.7867 7.1863,0.5431 11.5056,1.8325 18.9943,5.6688 12.7432,6.5277 18,10.2988 18.809,13.4927 0.7843,3.0963 -3.0816,7.4072 -7.9587,8.8751 -3.7949,1.142 -13.1476,1.8745 -36.5397,2.8616 -11.6343,0.4911 -23.1159,1.2282 -25.5147,1.6381 -8.6238,1.4747 -17.3919,3.7824 -18.57258,4.8886 -1.6075,1.5054 -2.5149,1.3733 -2.5149,-0.3663 z m 146.09518,-31.2339 c -0.7499,-0.7502 -0.3639,-6.5097 0.556,-8.2968 3.9369,-7.6493 11.4436,-15.89 23.7302,-26.05 14.2037,-11.7452 24.4208,-16.305 36.5364,-16.305 5.0383,0 7.4056,0.821 7.4056,2.5685 0,2.3343 -3.5464,4.1413 -13.363,6.8073 -6.9781,1.8955 -8.621,2.7227 -14.2147,7.1583 -12.0246,9.5346 -30.9717,27.0161 -36.0673,33.2763 -0.9527,1.1702 -3.7419,1.6822 -4.5832,0.8414 z m -50.766,-24.7198 c -1.3625,-0.6974 -5.5682,-4.1691 -9.3462,-7.7151 -8.181,-7.6793 -11.5301,-10.0357 -19.8763,-13.9877 -11.9175,-5.6421 -19.43,-7.3579 -30.3255,-6.9247 -11.3392,0.4514 -16.7431,2.8991 -25.564,11.5803 -2.9562,2.9098 -5.5715,5.29 -5.8116,5.29 -1.5777,0 1.5855,-6.2528 5.8856,-11.6347 5.833,-7.3 15.4111,-13.6305 24.0119,-15.8707 6.3672,-1.6579 14.9631,-2.2526 21.9839,-1.5206 16.6065,1.731 30.5137,7.9634 41.9716,18.8094 7.0189,6.6434 9.3195,11.8297 7.7816,17.5416 -1.4475,5.3751 -5.551,7.0733 -10.711,4.4322 z m 52.1538,0.3583 c -3.3083,-2.3173 -4.467,-9.433 -2.2901,-14.0642 1.4769,-3.1417 10.1579,-11.5967 15.6199,-15.2136 18.2496,-12.0832 37.4043,-16.0362 54.2976,-11.2055 9.5659,2.7358 19.9005,9.9752 26.1961,18.3502 2.8564,3.7994 5.5085,8.6484 5.214,9.5317 -0.1023,0.3068 -2.8416,-1.8745 -6.0872,-4.8472 -10.2001,-9.3435 -17.3001,-12.0095 -30.6459,-11.506 -15.8899,0.5988 -26.8765,5.7125 -46.4934,21.6387 -10.5251,8.5458 -12.651,9.5289 -15.811,7.3159 z" id="path8-6" style="fill:#ffffff"/></g></svg>